# xmcd
#
# Track frame offsets:
# 150
# 14499
# 29908
# 42599
# 57810
# 71957
# 82503
# 92340
# 101681
# 113578
# 124540
# 137573
#
# Disc length: 1977 seconds
#
#
# Revision: 0
# Processed by: cddbd v1.5.2PL0 Copyright (c) Steve Scherf et al.
# Submitted via: FreeRIP 2.96 
#
DISCID=9907b70c
DTITLE=jo quint - am lagerfeuer
DYEAR=1900
DGENRE=Country Deutsch
TTITLE0=am lagerfeuer
TTITLE1=es hängt ein pferdehalfter ...
TTITLE2=hallo jonny
TTITLE3=debbie
TTITLE4=unerfüllte träume
TTITLE5=warum nicht
TTITLE6=oh, joanna
TTITLE7=red river
TTITLE8=am ende der welt
TTITLE9=viel glück und keine freunde
TTITLE10=die letzte wurst vom grill
TTITLE11=adios amigo
EXTD=
EXTT0=
EXTT1=
EXTT2=
EXTT3=
EXTT4=
EXTT5=
EXTT6=
EXTT7=
EXTT8=
EXTT9=
EXTT10=
EXTT11=
PLAYORDER=
